PathFileType	4	(X/Y/Z)	jw_ngait_og1.trc	
DataRate	CameraRate	NumFrames	NumMarkers	Units	OrigDataRate	OrigDataStartFrame	OrigNumFrames	
120.00	120.00	5	56	mm	120.00	196	327	
Frame#	Time	Sternum			Neck			RShoulder			LShoulder			Xiphoid			Thoracic			RAsis			LAsis			RPsis			LPsis			Lumbar			RElbow			RWrist			RRadius			RUlna			LElbow			LWrist			LUlna			LRadius			LThighSuperior			LThighInferior			LThighLateral			LPatella			LShankSuperior			LShankInferior			LShankLateral			RThighSuperior			RThighInferior			RThighLateral			RPatella			RShankSuperior			RShankInferior			RShankLateral			RHeel			RToe			RMidfootMedial			RMidfootLateral			RHindfoot			RMidfootSuperior			RToeMedial			RToeLateral			LHeel			LToe			LMidfootMedial			LMidfootLateral			LHindfoot			LMidfootSuperior			LToeMedial			LToeLateral			LShoulderCenter			Oglobal			RShoulderCenter			Sacral			Xglobal			Yglobal			Zglobal			
		X1	Y1	Z1	X2	Y2	Z2	X3	Y3	Z3	X4	Y4	Z4	X5	Y5	Z5	X6	Y6	Z6	X7	Y7	Z7	X8	Y8	Z8	X9	Y9	Z9	X10	Y10	Z10	X11	Y11	Z11	X12	Y12	Z12	X13	Y13	Z13	X14	Y14	Z14	X15	Y15	Z15	X16	Y16	Z16	X17	Y17	Z17	X18	Y18	Z18	X19	Y19	Z19	X20	Y20	Z20	X21	Y21	Z21	X22	Y22	Z22	X23	Y23	Z23	X24	Y24	Z24	X25	Y25	Z25	X26	Y26	Z26	X27	Y27	Z27	X28	Y28	Z28	X29	Y29	Z29	X30	Y30	Z30	X31	Y31	Z31	X32	Y32	Z32	X33	Y33	Z33	X34	Y34	Z34	X35	Y35	Z35	X36	Y36	Z36	X37	Y37	Z37	X38	Y38	Z38	X39	Y39	Z39	X40	Y40	Z40	X41	Y41	Z41	X42	Y42	Z42	X43	Y43	Z43	X44	Y44	Z44	X45	Y45	Z45	X46	Y46	Z46	X47	Y47	Z47	X48	Y48	Z48	X49	Y49	Z49	X50	Y50	Z50	X51	Y51	Z51	X52	Y52	Z52	X53	Y53	Z53	X54	Y54	Z54	X55	Y55	Z55	X56	Y56	Z56	

82	0.675	848.64197	127.71116	1321.32251	979.02905	125.70440	1440.61670	923.69684	304.95776	1386.76013	922.25574	-57.83870	1380.29004	855.57831	123.07945	1205.66199	1074.96912	120.84354	1251.57593	874.02625	263.92386	984.88385	887.34650	-5.94255	967.42163	1091.64734	155.89098	957.85327	1090.94043	96.58547	961.09473	1089.04016	129.23131	1029.07788	1005.49292	391.90012	1061.19031	903.22186	385.62430	813.92078	883.85315	351.87158	823.35602	950.75452	379.15735	809.47107	898.20276	-154.77934	1060.47546	717.91650	-148.14368	857.64435	760.02539	-146.87180	828.40137	719.86993	-111.98850	882.37573	969.74835	-45.87735	802.06946	1033.22156	9.55885	566.21967	939.29364	19.51306	662.47375	1011.26184	65.58271	488.25797	1080.53088	24.00111	424.82791	1141.33105	59.33883	173.73953	1074.25977	96.50696	293.04037	890.74615	296.85269	795.02533	763.38684	252.21033	590.56421	770.52655	224.15239	690.57764	710.74957	201.42706	545.42798	752.48145	278.14468	395.44910	630.08057	236.29919	193.42574	641.69739	192.81483	301.90375	640.65295	198.58345	41.20253	393.56146	228.73477	206.25414	454.36795	168.31317	157.90485	474.83517	280.64322	145.07721	530.14545	272.66626	83.72716	532.88660	216.10420	187.61365	420.50662	182.71597	176.53345	427.46741	270.38742	177.95694	1248.73657	97.05827	54.45363	952.62860	70.72567	53.42256	1038.17896	137.31377	26.07594	1054.52917	13.90403	32.24049	1154.36292	30.31434	22.69768	1077.85510	83.73186	106.64771	990.09436	112.55200	42.59192	1003.24786	25.06468	42.43091	950.24426	-48.66273	1337.75122	0.00000	0.00000	0.00000	949.82031	303.28036	1344.72253	1091.29395	126.23822	959.47400	200.00000	0.00000	0.00000	0.00000	200.00000	0.00000	0.00000	0.00000	200.00000 
83	0.683	837.89441	128.85437	1318.90393	968.51959	127.16647	1438.14880	913.26752	306.29126	1383.80994	911.76849	-56.61467	1378.25732	844.86481	124.09559	1203.28979	1064.47485	121.47897	1249.16492	863.63098	264.22284	982.24591	876.19843	-5.96153	965.37415	1081.04456	155.65501	955.37738	1080.13245	96.34678	958.63635	1078.30347	128.91043	1026.59741	994.21643	392.23227	1057.73926	893.81604	385.82965	809.99969	874.35791	352.09943	819.15234	941.53064	379.57275	805.90314	887.53278	-153.80000	1058.37158	706.70404	-147.52605	855.62610	749.36414	-146.31964	826.84271	708.64984	-111.08849	880.03674	960.05115	-46.24223	800.40784	1026.32520	8.54580	565.69672	930.87598	18.77705	659.66479	1005.62793	65.23022	486.42639	1075.37720	23.89006	424.52747	1138.73193	58.93210	173.85950	1071.23340	96.91307	292.57846	880.74847	297.32565	792.97925	751.92206	251.86656	589.74615	759.51428	224.11603	689.44135	698.60840	201.62500	544.91150	739.92249	278.13022	394.37460	616.73962	236.32057	192.64835	628.81635	193.05872	301.06540	626.21710	198.40648	39.98613	380.74982	228.80280	207.29434	441.01605	168.27496	158.43649	461.20090	280.58893	145.03366	516.03595	272.38943	83.29915	519.63055	216.30103	187.40894	407.31375	182.66873	177.41248	414.13846	270.30356	178.36247	1248.43311	97.08163	55.21706	951.01154	69.95954	51.76584	1038.13660	137.68936	25.43959	1054.13696	14.28002	32.46938	1154.76599	30.38452	23.11195	1078.54749	84.61260	106.16883	989.94769	112.41305	42.43723	1003.17310	25.01544	42.00568	939.49091	-47.49176	1335.66296	0.00000	0.00000	0.00000	939.12354	304.46790	1341.74500	1080.58850	126.00090	957.00684	200.00000	0.00000	0.00000	0.00000	200.00000	0.00000	0.00000	0.00000	200.00000 
84	0.692	827.41589	130.15804	1316.68628	958.01868	128.74377	1435.78845	902.44165	307.25024	1380.82788	901.24677	-55.37000	1376.08289	834.28015	125.17889	1201.00586	1053.88794	122.05180	1246.94153	853.37134	264.66925	979.76282	865.15546	-5.87054	963.27032	1070.34644	155.28987	953.04816	1069.14771	95.84247	956.35840	1067.65723	128.64458	1024.27905	982.95886	392.82126	1054.54724	884.51239	386.19785	806.13678	865.10504	352.38788	815.31158	932.21954	379.95587	802.39996	876.61426	-152.69893	1056.09863	695.79266	-146.68056	853.18524	738.59070	-145.50397	824.98480	697.81757	-110.29293	877.86737	950.21112	-46.46826	798.66833	1018.88513	8.80462	564.26300	922.63599	18.04091	657.52527	1000.70618	65.34007	484.07346	1069.89587	23.43395	424.20773	1136.04199	58.68028	174.13879	1067.61316	96.62876	292.00629	869.52252	298.15509	791.09601	739.50488	251.13007	589.70966	748.25177	224.51775	688.65387	685.97058	201.96626	544.37665	727.48737	278.18616	393.38541	604.93378	236.28389	191.15923	616.39233	193.26741	299.72052	614.51947	198.18881	38.49076	369.27161	228.58806	205.83908	429.55542	168.04771	157.30846	449.36206	280.35840	143.32622	504.13391	272.03748	81.58250	508.03513	216.47189	185.96805	395.78259	182.36166	176.15834	402.30453	270.04031	176.58054	1248.11060	97.05213	56.23182	951.25323	70.10178	51.48646	1037.80847	136.34312	24.77473	1054.60217	13.01639	31.39203	1155.00610	30.27264	23.48899	1075.87659	83.01704	106.19881	989.70636	112.27259	41.97717	1002.99554	24.85619	41.62067	929.16968	-46.06496	1333.78296	0.00000	0.00000	0.00000	928.50867	305.90686	1339.08643	1069.74707	125.56617	954.70325	200.00000	0.00000	0.00000	0.00000	200.00000	0.00000	0.00000	0.00000	200.00000 
85	0.700	816.87720	131.58636	1314.51367	947.32886	130.12555	1433.68689	892.17249	308.74304	1378.10364	890.38055	-54.07689	1374.33740	823.59015	126.40671	1198.94128	1043.24951	122.60848	1244.82971	842.79749	265.32712	977.43884	853.72357	-5.64058	961.33868	1059.45813	154.78880	950.90216	1058.11926	95.52717	954.21649	1056.65332	128.49768	1022.14337	971.84637	393.59903	1051.53918	875.18805	386.56897	802.45178	855.85681	352.75470	811.46747	922.85126	380.44559	798.92767	865.54443	-151.43159	1053.97900	685.21320	-145.97185	850.79523	728.03607	-144.46790	822.59912	686.94855	-109.50782	875.23737	939.89014	-46.61140	796.84747	1010.50195	8.34158	563.26599	913.94324	17.20826	655.70587	995.66107	66.17125	481.60477	1063.69983	22.96545	423.65710	1133.70679	58.59052	174.38187	1063.42468	96.09057	291.39453	858.07623	298.74585	789.40576	727.00366	251.36919	589.24426	734.91394	225.70102	689.00385	672.81720	202.85699	543.76947	715.18829	278.18591	392.28864	594.79486	236.21817	189.10762	604.85785	193.43573	297.91650	605.14587	197.74242	36.34686	359.07428	228.28040	202.26637	419.72418	167.46645	154.41460	439.15695	279.78302	139.96300	494.23901	271.45618	78.39249	497.90637	216.33810	183.16388	386.05524	181.88692	173.08159	392.18082	269.71994	173.05388	1247.78601	97.16473	57.18911	951.20599	70.08397	51.15425	1037.69092	136.62517	24.58192	1054.33130	13.28902	31.40747	1154.88940	30.14944	23.68916	1075.67371	83.37403	106.14497	989.60138	112.42233	41.77043	1002.80103	24.64473	41.00238	918.32465	-44.75761	1332.17444	0.00000	0.00000	0.00000	918.24158	307.22791	1336.52441	1058.78870	125.15799	952.55933	200.00000	0.00000	0.00000	0.00000	200.00000	0.00000	0.00000	0.00000	200.00000 
86	0.708	806.25433	133.13857	1312.51343	936.70355	131.69225	1431.74927	881.58148	309.91296	1375.42078	879.51410	-52.71804	1372.63843	812.83362	127.61377	1197.04846	1032.42468	123.19249	1242.90308	832.16040	266.01569	975.20154	842.13788	-5.46965	959.70953	1048.41431	154.38232	948.87183	1046.87756	95.20056	952.19238	1045.56262	128.31570	1020.10944	960.70074	394.36206	1048.76880	865.82550	386.94876	798.79547	846.43890	353.05276	807.79449	913.67212	381.12296	795.74109	854.61444	-149.86861	1051.99268	675.06995	-144.96501	848.30029	717.93079	-143.45349	820.00275	676.73004	-108.58646	872.84662	929.75311	-46.89965	795.24158	1001.86066	7.95982	561.99969	904.52740	16.53109	653.93524	988.42340	66.67997	479.94583	1057.21997	22.48774	423.18829	1131.54602	57.96672	175.27716	1059.31323	95.93340	290.89236	846.88806	298.95123	787.86298	713.89325	251.61662	589.08313	721.92078	226.13373	688.09460	659.60083	204.27888	543.04150	703.24530	278.11801	391.11716	585.94244	235.85567	186.26932	594.13617	193.46201	295.27936	597.99774	196.93449	33.75276	350.21487	228.14961	196.93585	411.25302	167.40529	149.90898	431.02469	279.63470	135.24149	486.82349	270.92001	74.32803	489.20099	216.26205	179.31612	377.39563	181.79185	168.02005	383.62662	269.43405	168.00336	1247.43225	97.27824	58.37389	950.87341	69.93336	50.28611	1037.59265	137.15402	24.64581	1054.00635	13.77330	31.20960	1154.95471	30.09129	23.60211	1075.90186	83.67853	106.02875	989.64294	112.48433	41.65571	1002.62823	23.88886	41.01328	907.56238	-43.23439	1330.67773	0.00000	0.00000	0.00000	907.74750	308.76157	1334.07410	1047.64600	124.79144	950.53210	200.00000	0.00000	0.00000	0.00000	200.00000	0.00000	0.00000	0.00000	200.00000 
